<?xml version="1.0" ?><svg viewBox="0 0 64 64" xmlns="http://www.w3.org/2000/svg"><g id="a"/><g id="b"><path d="M30.02,5c-8.18,0-14.81,6.63-14.81,14.81,0,5.56,3.12,10.66,8.07,13.19l8.05,6.25,10.43-10.41c1.99-2.59,3.07-5.76,3.07-9.03,0-8.18-6.63-14.81-14.81-14.81Z" fill="#f2d865" fill-rule="evenodd"/><path d="M14.44,33c-2.4,0-4.33,1.93-4.33,4.33s1.93,4.33,4.33,4.33v8.67c-2.4,0-4.33,1.94-4.33,4.34s1.93,4.33,4.33,4.33h20.3c1,0,1.93-.34,2.66-.91l-1.92-18.93-6.9-6.17H14.44Z" fill="#f2d865" fill-rule="evenodd"/><path d="M26.04,50.33H14.45c-2.4,0-4.34-1.93-4.34-4.33s1.93-4.33,4.34-4.33h9.94l1.65,8.67Z" fill="#e9c03d" fill-rule="evenodd"/><circle cx="39.08" cy="43.39" fill="#f5e680" r="14.81" transform="translate(-15.35 22.23) rotate(-26.75)"/><circle cx="39.08" cy="43.39" fill="#ebb680" r="8.12"/><circle cx="30.02" cy="19.81" fill="#e6a361" r="8.12" transform="translate(8.07 48.3) rotate(-85.81)"/><path d="M30.02,14.28c-.55,0-1,.45-1,1v.28c-1,.4-1.72,1.39-1.72,2.53,0,1.49,1.23,2.72,2.72,2.72,.41,0,.72,.31,.72,.72s-.31,.72-.72,.72c-.21,0-.38-.08-.51-.21-.39-.39-1.03-.39-1.41,0-.39,.39-.39,1.03,0,1.41,.26,.26,.57,.47,.92,.61v.28c0,.55,.45,1,1,1s1-.45,1-1v-.28c1-.4,1.72-1.39,1.72-2.53,0-1.49-1.23-2.72-2.72-2.72-.41,0-.72-.31-.72-.72s.31-.72,.72-.72c.2,0,.38,.08,.51,.21,.39,.39,1.03,.39,1.41,0,.39-.39,.39-1.03,0-1.41-.26-.26-.57-.47-.92-.61v-.28c0-.55-.45-1-1-1Z" fill="#f0f3f5" fill-rule="evenodd"/><circle cx="39.08" cy="54.85" fill="#e6a361" r="1"/><path d="M47.12,50.5c-.24,.02-.46,.12-.64,.29-.39,.39-.39,1.03,0,1.41,.39,.39,1.03,.39,1.41,0,.39-.39,.39-1.03,0-1.41-.2-.21-.49-.31-.78-.29Z" fill="#e6a361" fill-rule="evenodd"/><path d="M30.9,50.5c-.24,.02-.47,.12-.64,.29-.39,.39-.39,1.03,0,1.41,.39,.39,1.03,.39,1.41,0,.39-.39,.39-1.03,0-1.41-.21-.2-.49-.31-.78-.29Z" fill="#e6a361" fill-rule="evenodd"/><circle cx="50.55" cy="43.39" fill="#e6a361" r="1"/><circle cx="27.62" cy="43.39" fill="#e6a361" r="1"/><path d="M39.08,37.86c-.55,0-1,.45-1,1v.28c-1,.4-1.72,1.39-1.72,2.53,0,1.49,1.23,2.72,2.72,2.72,.41,0,.72,.31,.72,.72s-.31,.72-.72,.72c-.2,0-.38-.08-.51-.21-.39-.39-1.03-.39-1.41,0-.39,.39-.39,1.03,0,1.41,.26,.26,.58,.47,.92,.61v.28c0,.55,.45,1,1,1s1-.45,1-1v-.28c1-.4,1.72-1.39,1.72-2.53,0-1.49-1.23-2.72-2.72-2.72-.41,0-.72-.31-.72-.72s.31-.72,.72-.72c.2,0,.38,.08,.51,.21,.39,.39,1.03,.39,1.41,0,.39-.39,.39-1.03,0-1.41-.26-.26-.58-.47-.92-.61v-.28c0-.55-.45-1-1-1Z" fill="#f0f3f5" fill-rule="evenodd"/><path d="M47.12,34.28c-.24,.02-.46,.12-.64,.29-.39,.39-.39,1.03,0,1.41,.39,.39,1.03,.39,1.41,0,.39-.39,.39-1.03,0-1.41-.2-.2-.49-.31-.78-.29Z" fill="#e6a361" fill-rule="evenodd"/><path d="M30.9,34.28c-.24,.02-.47,.12-.64,.29-.39,.39-.39,1.03,0,1.41,.39,.39,1.03,.39,1.41,0,.39-.39,.39-1.03,0-1.41-.21-.2-.49-.31-.78-.29Z" fill="#e6a361" fill-rule="evenodd"/><circle cx="39.08" cy="31.92" fill="#e6a361" r="1"/><circle cx="30.02" cy="8.34" fill="#e6a361" r="1"/><circle cx="41.48" cy="19.81" fill="#e6a361" r="1"/><circle cx="18.55" cy="19.81" fill="#e6a361" r="1"/><path d="M38.83,10.99c-.39-.39-1.03-.39-1.41,0-.39,.39-.39,1.03,0,1.41,.39,.39,1.03,.39,1.41,0,.39-.39,.39-1.03,0-1.41Z" fill="#e6a361" fill-rule="evenodd"/><path d="M22.62,27.21c-.39-.39-1.03-.39-1.42,0-.39,.39-.39,1.03,0,1.41,.39,.39,1.03,.39,1.42,0,.39-.39,.39-1.03,0-1.41Z" fill="#e6a361" fill-rule="evenodd"/><path d="M22.62,12.41c.39-.39,.39-1.03,0-1.41-.19-.19-.44-.29-.71-.29s-.52,.11-.71,.29c-.39,.39-.39,1.03,0,1.41,.19,.19,.44,.29,.71,.29s.52-.11,.71-.29Z" fill="#e6a361" fill-rule="evenodd"/></g><g id="c"/><g id="d"/><g id="e"/><g id="f"/><g id="g"/><g id="h"/><g id="i"/><g id="j"/><g id="k"/><g id="l"/><g id="m"/><g id="n"/><g id="o"/><g id="p"/><g id="q"/><g id="r"/><g id="s"/><g id="t"/><g id="u"/><g id="v"/><g id="w"/><g id="x"/><g id="y"/><g id="a`"/><g id="aa"/><g id="ab"/><g id="ac"/><g id="ad"/><g id="ae"/><g id="af"/><g id="ag"/><g id="ah"/><g id="ai"/><g id="aj"/><g id="ak"/><g id="al"/><g id="am"/><g id="an"/><g id="ao"/><g id="ap"/><g id="aq"/><g id="ar"/><g id="as"/><g id="at"/><g id="au"/><g id="av"/><g id="aw"/><g id="ax"/></svg>